<svg xmlns="http://www.w3.org/2000/svg" viewBox="0 0 120 132">
  <rect width="120" height="132" rx="22" fill="#02060a"/>
  <path d="M60 11 C43 18 31 31 27 53 C23 75 24 94 26 113 C33 104 39 119 45 106 C51 121 57 106 63 118 C69 105 75 119 81 106 C87 117 92 104 96 113 C98 94 97 75 93 53 C89 31 77 18 60 11 Z"
        fill="none" stroke="#41ffa1" stroke-width="4.5" stroke-linejoin="round"/>
  <path d="M40 54 L55 50" stroke="#20f5ff" stroke-width="6" stroke-linecap="round"/>
  <path d="M80 54 L65 50" stroke="#20f5ff" stroke-width="6" stroke-linecap="round"/>
  <path d="M43 68 C50 65 57 65 64 68" stroke="#d6ffec" stroke-width="4" stroke-linecap="round"/>
  <path d="M77 68 C70 65 63 65 56 68" stroke="#d6ffec" stroke-width="4" stroke-linecap="round" opacity=".9"/>
  <path d="M43 85 C54 91 68 91 79 83" fill="none" stroke="#20f5ff" stroke-width="4.3" stroke-linecap="round"/>
</svg>
