<svg xmlns="http://www.w3.org/2000/svg" width="1200" height="720" viewBox="0 0 1200 720" role="img" aria-labelledby="title desc">
  <title id="title">Phantombot Unleashed product cover</title>
  <desc id="desc">A local-first AI agent command core running inside a private desktop vault.</desc>
  <defs>
    <linearGradient id="bg" x1="0" y1="0" x2="1" y2="1">
      <stop offset="0" stop-color="#020609"/>
      <stop offset=".48" stop-color="#071513"/>
      <stop offset="1" stop-color="#171025"/>
    </linearGradient>
    <linearGradient id="rail" x1="0" y1="0" x2="1" y2="0">
      <stop offset="0" stop-color="#41ffa1"/>
      <stop offset=".52" stop-color="#4fe0ff"/>
      <stop offset="1" stop-color="#9c6cff"/>
    </linearGradient>
    <radialGradient id="core" cx="50%" cy="50%" r="50%">
      <stop offset="0" stop-color="#f2fff9"/>
      <stop offset=".24" stop-color="#41ffa1"/>
      <stop offset=".64" stop-color="#41ffa1" stop-opacity=".18"/>
      <stop offset="1" stop-color="#41ffa1" stop-opacity="0"/>
    </radialGradient>
    <filter id="glow" x="-50%" y="-50%" width="200%" height="200%">
      <feGaussianBlur stdDeviation="12"/>
    </filter>
  </defs>
  <rect width="1200" height="720" fill="url(#bg)"/>
  <rect x="54" y="48" width="1092" height="624" rx="38" fill="#020807" opacity=".78" stroke="#41ffa1" stroke-opacity=".36"/>
  <g opacity=".22" stroke="#41ffa1" stroke-width="1">
    <path d="M110 160h980M110 250h980M110 340h980M110 430h980M110 520h980"/>
    <path d="M170 104v516M300 104v516M430 104v516M560 104v516M690 104v516M820 104v516M950 104v516M1080 104v516"/>
  </g>
  <g transform="translate(675 126)">
    <circle cx="170" cy="224" r="212" fill="url(#core)" filter="url(#glow)" opacity=".85"/>
    <path d="M40 114 h260 c42 0 76 34 76 76 v188 c0 42 -34 76 -76 76 H40 c-42 0 -76 -34 -76 -76 V190 c0 -42 34 -76 76 -76Z" fill="#04110e" stroke="#41ffa1" stroke-width="8"/>
    <path d="M44 82 c0 -72 58 -130 130 -130 s130 58 130 130 v56 h-56 V82 c0 -41 -33 -74 -74 -74s-74 33 -74 74v56H44Z" fill="#071713" stroke="#4fe0ff" stroke-width="7"/>
    <circle cx="170" cy="284" r="58" fill="#06231a" stroke="#41ffa1" stroke-width="8"/>
    <path d="M170 248 v52 l40 32" fill="none" stroke="#e9fff5" stroke-width="10" stroke-linecap="round" stroke-linejoin="round"/>
    <path d="M70 198 h68 M204 198 h68 M70 382 h200" stroke="#4fe0ff" stroke-width="8" stroke-linecap="round" opacity=".72"/>
    <g fill="#41ffa1">
      <circle cx="86" cy="198" r="10"/><circle cx="254" cy="198" r="10"/>
      <circle cx="112" cy="430" r="6"/><circle cx="152" cy="430" r="6"/><circle cx="192" cy="430" r="6"/><circle cx="232" cy="430" r="6"/>
    </g>
  </g>
  <g transform="translate(96 126)">
    <text x="0" y="0" fill="#41ffa1" font-family="Spline Sans Mono, ui-monospace, monospace" font-size="24" font-weight="800" letter-spacing="8">PHANTOMSTORE</text>
    <text x="0" y="82" fill="#f1fff9" font-family="Instrument Sans, Arial, sans-serif" font-size="76" font-weight="900">Phantombot</text>
    <text x="0" y="158" fill="#f1fff9" font-family="Instrument Sans, Arial, sans-serif" font-size="76" font-weight="900">Unleashed</text>
    <text x="0" y="210" fill="#a8c6bd" font-family="Instrument Sans, Arial, sans-serif" font-size="28" font-weight="650">Fully local. Self-hosted. Private by default.</text>
    <g transform="translate(0 268)" fill="none" stroke="url(#rail)" stroke-width="3">
      <rect x="0" y="0" width="358" height="56" rx="16"/>
      <rect x="0" y="78" width="438" height="56" rx="16"/>
      <rect x="0" y="156" width="320" height="56" rx="16"/>
    </g>
    <g fill="#d9fff0" font-family="Instrument Sans, Arial, sans-serif" font-size="22" font-weight="850">
      <text x="24" y="305">No hosted login required</text>
      <text x="24" y="383">Local model command loop</text>
      <text x="24" y="461">Advanced operator build</text>
    </g>
    <path d="M0 544 h506" stroke="url(#rail)" stroke-width="5" stroke-linecap="round"/>
    <text x="0" y="586" fill="#7f938c" font-family="Spline Sans Mono, ui-monospace, monospace" font-size="18" font-weight="700" letter-spacing="3">QUALITY HOLD / PACKAGING IN PROGRESS</text>
  </g>
</svg>
