<svg xmlns="http://www.w3.org/2000/svg" viewBox="0 0 1200 675" role="img" aria-labelledby="t d">
  <title id="t">Phantom Strike</title><desc id="d">A first-person tactical arena with an armored operator.</desc>
  <defs><linearGradient id="bg" x1="0" y1="0" x2="1" y2="1"><stop stop-color="#061411"/><stop offset=".55" stop-color="#071011"/><stop offset="1" stop-color="#10191e"/></linearGradient><radialGradient id="g"><stop stop-color="#43f7a0" stop-opacity=".32"/><stop offset="1" stop-color="#43f7a0" stop-opacity="0"/></radialGradient><filter id="b"><feGaussianBlur stdDeviation="18"/></filter></defs>
  <rect width="1200" height="675" fill="url(#bg)"/><circle cx="850" cy="330" r="330" fill="url(#g)" filter="url(#b)"/><path d="M0 530L270 360l145 90 155-230 190 120 165-250 275 180v405H0z" fill="#0b201b"/><g stroke="#43f7a0" opacity=".22" fill="none"><path d="M0 530L270 360l145 90 155-230 190 120 165-250 275 180"/><path d="M570 220v455M925 90v585M270 360v315"/></g>
  <g transform="translate(820 90)"><path d="M118 64l70 46 34 122-42 254-122 70-130-64-38-254 38-130z" fill="#152a24" stroke="#43f7a0" stroke-width="4"/><path d="M7 98l110-18 76 61-23 82-132 20-74-60z" fill="#1b3b35"/><path d="M25 144l132-20 12 48-131 25z" fill="#38dffc" opacity=".85"/><path d="M-56 219l-110 191 61 39 121-139zM176 224l107 191-60 39-124-140z" fill="#132720" stroke="#315e4f" stroke-width="4"/><path d="M14 262h144l35 213H-18z" fill="#14241f" stroke="#315e4f" stroke-width="4"/><path d="M-30 342l-205 45-3 42 226-8 58 82 52-33-58-110z" fill="#101817"/><path d="M-227 386l-103 16 5 31 102-4z" fill="#2f4742"/><circle cx="94" cy="358" r="36" fill="#43f7a0" opacity=".25"/><path d="M15 475l-55 150h72l59-125 48 125h78l-30-152z" fill="#101b18"/></g>
  <g opacity=".5" stroke="#38dffc"><path d="M640 337h72M676 301v72"/><circle cx="676" cy="337" r="52" fill="none"/></g>
  <g font-family="Inter,Segoe UI,sans-serif"><text x="65" y="165" fill="#43f7a0" font-size="25" font-weight="850" letter-spacing="5">FIRST-PERSON TACTICAL ARCADE</text><text x="60" y="285" fill="#edf8f2" font-size="91" font-weight="950">PHANTOM</text><text x="60" y="380" fill="#43f7a0" font-size="104" font-weight="950">STRIKE</text><text x="67" y="438" fill="#9baba5" font-size="28">Solo operations. Real local split-screen.</text></g>
</svg>
